<?xml version="1.0" encoding="UTF-8" standalone="no"?>
<!-- Created with Inkscape (http://www.inkscape.org/) -->

<svg
   xmlns:dc="http://purl.org/dc/elements/1.1/"
   xmlns:cc="http://creativecommons.org/ns#"
   xmlns:rdf="http://www.w3.org/1999/02/22-rdf-syntax-ns#"
   xmlns:svg="http://www.w3.org/2000/svg"
   xmlns="http://www.w3.org/2000/svg"
   xmlns:sodipodi="http://sodipodi.sourceforge.net/DTD/sodipodi-0.dtd"
   xmlns:inkscape="http://www.inkscape.org/namespaces/inkscape"
   width="210mm"
   height="297mm"
   viewBox="0 0 744.09448819 1052.3622047"
   id="svg2"
   version="1.1"
   inkscape:version="0.91 r13725"
   sodipodi:docname="group.svg">
  <defs
     id="defs4" />
  <sodipodi:namedview
     id="base"
     pagecolor="#ffffff"
     bordercolor="#666666"
     borderopacity="1.0"
     inkscape:pageopacity="0.0"
     inkscape:pageshadow="2"
     inkscape:zoom="1.979899"
     inkscape:cx="1.984989"
     inkscape:cy="82.287013"
     inkscape:document-units="px"
     inkscape:current-layer="layer1"
     showgrid="false"
     inkscape:window-width="1366"
     inkscape:window-height="745"
     inkscape:window-x="-8"
     inkscape:window-y="-8"
     inkscape:window-maximized="1" />
  <metadata
     id="metadata7">
    <rdf:RDF>
      <cc:Work
         rdf:about="">
        <dc:format>image/svg+xml</dc:format>
        <dc:type
           rdf:resource="http://purl.org/dc/dcmitype/StillImage" />
        <dc:title />
      </cc:Work>
    </rdf:RDF>
  </metadata>
  <g
     inkscape:label="Capa 1"
     inkscape:groupmode="layer"
     id="layer1">
    <g
       id="g4195"
       transform="matrix(2.6198822,0,0,2.619861,390.31128,-475.96339)"
       inkscape:export-xdpi="90"
       inkscape:export-ydpi="90">
      <rect
         y="537.55737"
         x="-148.98045"
         height="45.80357"
         width="45.80357"
         id="rect4147"
         style="opacity:1;fill:#cccccc;fill-opacity:1;stroke:none;stroke-opacity:1" />
      <path
         id="path4151"
         d="m -134.45117,547.39844 c -3.30588,0.014 -6.99176,1.69882 -8.19531,4.95312 -0.77143,3.38889 -0.41114,6.91026 -0.12696,10.33203 0.80358,2.38567 2.91027,4.76075 1.75,7.41016 -1.71457,3.06425 -6.44456,2.51968 -7.81445,5.91602 -0.0766,0.46554 -0.11705,0.93588 -0.14258,1.4082 l 0,2.91797 c 0.024,0.84804 0.0418,1.69558 0,2.53711 l 0,0.48828 45.80274,0 c -0.0903,-0.87457 -0.0465,-1.76728 0,-2.66016 l 0,-2.61914 c -0.072,-0.74507 -0.22971,-1.47694 -0.58008,-2.18164 -2.11124,-1.64826 -5.47131,-1.4995 -6.87891,-4.0625 -0.46588,-2.51206 2.43009,-4.22627 2.29688,-6.82812 0.48467,-3.01459 0.25097,-6.489 -1.74805,-8.92969 -2.83786,-2.80221 -8.67525,-2.22806 -10.22656,1.67773 -1.12234,3.05562 -0.94193,6.50054 -0.10352,9.60157 0.96557,2.12184 2.04988,5.33681 -0.94141,6.40039 -1.95394,0.67151 -3.73681,-0.87567 -5.55859,-1.40235 -1.66727,-0.63229 -3.25067,-2.38695 -2.48047,-4.2539 0.66417,-2.30604 2.07117,-4.40063 2.13867,-6.86524 0.43299,-3.60973 0.3642,-7.48123 -1.22461,-10.81445 -1.231,-2.021 -3.65763,-3.06031 -5.96679,-3.02539 z"
         style="fill:#808080"
         inkscape:connector-curvature="0" />
    </g>
  </g>
</svg>
