<?xml version="1.0" encoding="UTF-8" standalone="no"?>
<!-- Created with Inkscape (http://www.inkscape.org/) -->

<svg
   xmlns:dc="http://purl.org/dc/elements/1.1/"
   xmlns:cc="http://creativecommons.org/ns#"
   xmlns:rdf="http://www.w3.org/1999/02/22-rdf-syntax-ns#"
   xmlns:svg="http://www.w3.org/2000/svg"
   xmlns="http://www.w3.org/2000/svg"
   xmlns:sodipodi="http://sodipodi.sourceforge.net/DTD/sodipodi-0.dtd"
   xmlns:inkscape="http://www.inkscape.org/namespaces/inkscape"
   width="210mm"
   height="297mm"
   viewBox="0 0 744.09448819 1052.3622047"
   id="svg2"
   version="1.1"
   inkscape:version="0.91 r13725"
   sodipodi:docname="telebackup.svg">
  <defs
     id="defs4" />
  <sodipodi:namedview
     id="base"
     pagecolor="#ffffff"
     bordercolor="#666666"
     borderopacity="1.0"
     inkscape:pageopacity="0.0"
     inkscape:pageshadow="2"
     inkscape:zoom="0.35"
     inkscape:cx="510.70814"
     inkscape:cy="388.83378"
     inkscape:document-units="px"
     inkscape:current-layer="layer1"
     showgrid="false"
     inkscape:window-width="1366"
     inkscape:window-height="745"
     inkscape:window-x="-8"
     inkscape:window-y="-8"
     inkscape:window-maximized="1" />
  <metadata
     id="metadata7">
    <rdf:RDF>
      <cc:Work
         rdf:about="">
        <dc:format>image/svg+xml</dc:format>
        <dc:type
           rdf:resource="http://purl.org/dc/dcmitype/StillImage" />
        <dc:title></dc:title>
      </cc:Work>
    </rdf:RDF>
  </metadata>
  <g
     inkscape:label="Capa 1"
     inkscape:groupmode="layer"
     id="layer1">
    <g
       id="g4243"
       transform="translate(-100,-197.14286)">
      <path
         inkscape:connector-curvature="0"
         id="path4136"
         d="m 252.89343,287.66051 c -3.15883,0 -6.26383,3.57243 -6.70087,6.70087 l -23.35904,167.21574 -2.58433,18.4924 c -0.42807,3.06542 3.46968,6.56685 6.56484,6.56685 l 44.6198,0 78.10816,0 44.6198,0 c 3.09565,0 6.99498,-3.50095 6.56685,-6.56685 l -2.58233,-18.4924 -0.002,0 -23.36103,-167.21775 c -0.43694,-3.12751 -3.54101,-6.69886 -6.69888,-6.69886 l -115.19097,0 z"
         style="fill:#2ca5e0;fill-opacity:1;fill-rule:evenodd;stroke:#000000;stroke-width:1.02413309px;stroke-linecap:butt;stroke-linejoin:miter;stroke-opacity:1" />
      <path
         sodipodi:nodetypes="cssccsscc"
         inkscape:connector-curvature="0"
         id="path4153"
         d="m 222.83152,461.57712 -2.58233,18.4924 c -0.42807,3.06542 3.46968,6.56685 6.56484,6.56685 l 44.6198,0 78.10816,0 44.6198,0 c 3.09565,0 6.99498,-3.50095 6.56685,-6.56685 l -2.58233,-18.4924 z"
         style="fill:#1478a0;fill-opacity:1;fill-rule:evenodd;stroke:#000000;stroke-width:1.02413309px;stroke-linecap:butt;stroke-linejoin:miter;stroke-opacity:1" />
      <path
         inkscape:connector-curvature="0"
         id="path4190"
         d="m 315.22492,317.002 a 53.278223,53.278223 0 0 0 -53.22523,51.94472 l -9.52415,0 17.74696,16.38041 17.74695,-16.38041 -10.68728,0 a 38.018113,38.018113 0 0 1 37.94275,-36.68312 38.018113,38.018113 0 0 1 38.01839,38.01577 38.018113,38.018113 0 0 1 -38.01839,38.0184 38.018113,38.018113 0 0 1 -24.96049,-9.37551 l -9.412,11.99126 a 53.278223,53.278223 0 0 0 34.37249,12.64584 53.278223,53.278223 0 0 0 53.27737,-53.27999 53.278223,53.278223 0 0 0 -53.27737,-53.27737 z"
         style="opacity:1;fill:#1478a0;fill-opacity:1;stroke:none;stroke-opacity:1" />
      <path
         sodipodi:nodetypes="sssssssss"
         inkscape:connector-curvature="0"
         id="path4216"
         d="m 332.68138,345.42491 -46.06929,16.9326 c -1.03819,0.38158 -1.84871,2.66312 -0.88117,3.19916 l 17.55582,9.72647 c 0.7313,0.40516 1.19372,0.8944 1.56263,1.61159 l 9.18066,17.8473 c 0.50596,0.9836 2.8114,0.24382 3.2248,-0.78213 l 18.34474,-45.52541 c 0.52227,-1.29607 -1.60663,-3.49164 -2.91819,-3.00958 z"
         style="fill:#ffffff;fill-opacity:1;fill-rule:evenodd;stroke:none;stroke-width:1px;stroke-linecap:butt;stroke-linejoin:miter;stroke-opacity:1" />
    </g>
    <g
       id="g4249"
       transform="translate(-100,-197.14286)">
      <path
         style="fill:#2ca5e0;fill-opacity:1;fill-rule:evenodd;stroke:#000000;stroke-width:1.07486045px;stroke-linecap:butt;stroke-linejoin:miter;stroke-opacity:1"
         d="m 534.81653,287.68587 c -3.48039,0 -6.90144,3.57152 -7.38298,6.69917 l -25.73682,167.17311 -2.84739,18.48767 c -0.47165,3.06465 3.82286,6.56519 7.23309,6.56519 l 49.16177,0 86.059,0 49.16176,0 c 3.41077,0 7.70704,-3.50006 7.23532,-6.56519 l -2.8452,-18.48767 -0.002,0 -25.73901,-167.17511 c -0.48141,-3.12673 -3.90145,-6.69717 -7.38076,-6.69717 l -126.91657,0 z"
         id="path4227"
         inkscape:connector-curvature="0" />
      <path
         style="fill:#1478a0;fill-opacity:1;fill-rule:evenodd;stroke:#000000;stroke-width:1.07486045px;stroke-linecap:butt;stroke-linejoin:miter;stroke-opacity:1"
         d="m 501.69453,461.55815 -2.84519,18.48767 c -0.47165,3.06465 3.82286,6.56519 7.23309,6.56519 l 49.16177,0 86.059,0 49.16176,0 c 3.41077,0 7.70704,-3.50006 7.23532,-6.56519 l -2.8452,-18.48767 z"
         id="path4229"
         inkscape:connector-curvature="0"
         sodipodi:nodetypes="cssccsscc" />
      <path
         style="opacity:1;fill:#1478a0;fill-opacity:1;stroke:none;stroke-opacity:1"
         d="m 603.49291,317.01988 a 58.701558,53.264641 0 0 0 -58.64317,51.93148 l -10.49365,0 19.55348,16.37623 19.55345,-16.37623 -11.77517,0 a 41.88808,38.008422 0 0 1 41.80506,-36.67377 41.88808,38.008422 0 0 1 41.88838,38.00608 41.88808,38.008422 0 0 1 -41.88838,38.00871 41.88808,38.008422 0 0 1 -27.50129,-9.37312 l -10.37008,11.9882 a 58.701558,53.264641 0 0 0 37.87137,12.64262 58.701558,53.264641 0 0 0 58.70062,-53.26641 58.701558,53.264641 0 0 0 -58.70062,-53.26379 z"
         id="path4231"
         inkscape:connector-curvature="0" />
      <path
         style="fill:#ffffff;fill-opacity:1;fill-rule:evenodd;stroke:none;stroke-width:1px;stroke-linecap:butt;stroke-linejoin:miter;stroke-opacity:1"
         d="m 622.7263,345.43555 -50.7588,16.92828 c -1.14387,0.38148 -2.0369,2.66244 -0.97086,3.19834 l 19.34286,9.72399 c 0.80575,0.40506 1.31523,0.89418 1.7217,1.61118 l 10.11518,17.84275 c 0.55747,0.98335 3.09758,0.24376 3.55306,-0.78193 l 20.2121,-45.5138 c 0.57544,-1.29574 -1.77016,-3.49075 -3.21524,-3.00881 z"
         id="path4233"
         inkscape:connector-curvature="0"
         sodipodi:nodetypes="sssssssss" />
    </g>
    <g
       id="telebackup"
       transform="matrix(2.5,0,0,2.5,-1128.8405,-252.15095)"
       inkscape:export-xdpi="90"
       inkscape:export-ydpi="90">
      <path
         inkscape:connector-curvature="0"
         id="path4257"
         d="m 534.81653,287.68587 c -3.48039,0 -6.90144,3.57152 -7.38298,6.69917 l -25.73682,167.17311 -2.84739,18.48767 c -0.47165,3.06465 3.82286,6.56519 7.23309,6.56519 l 49.16177,0 86.059,0 49.16176,0 c 3.41077,0 7.70704,-3.50006 7.23532,-6.56519 l -2.8452,-18.48767 -0.002,0 -25.73901,-167.17511 c -0.48141,-3.12673 -3.90145,-6.69717 -7.38076,-6.69717 l -126.91657,0 z"
         style="fill:#2ca5e0;fill-opacity:1;fill-rule:evenodd;stroke:#000000;stroke-width:1.07486045px;stroke-linecap:butt;stroke-linejoin:miter;stroke-opacity:1" />
      <path
         sodipodi:nodetypes="cssccsscc"
         inkscape:connector-curvature="0"
         id="path4259"
         d="m 501.69453,461.55815 -2.84519,18.48767 c -0.47165,3.06465 3.82286,6.56519 7.23309,6.56519 l 49.16177,0 86.059,0 49.16176,0 c 3.41077,0 7.70704,-3.50006 7.23532,-6.56519 l -2.8452,-18.48767 z"
         style="fill:#1478a0;fill-opacity:1;fill-rule:evenodd;stroke:#000000;stroke-width:1.07486045px;stroke-linecap:butt;stroke-linejoin:miter;stroke-opacity:1" />
      <path
         inkscape:connector-curvature="0"
         id="path4261"
         d="m 603.49291,317.01988 a 58.701558,53.264641 0 0 0 -58.64317,51.93148 l -10.49365,0 19.55348,16.37623 19.55345,-16.37623 -11.77517,0 a 41.88808,38.008422 0 0 1 41.80506,-36.67377 41.88808,38.008422 0 0 1 41.88838,38.00608 41.88808,38.008422 0 0 1 -41.88838,38.00871 41.88808,38.008422 0 0 1 -27.50129,-9.37312 l -10.37008,11.9882 a 58.701558,53.264641 0 0 0 37.87137,12.64262 58.701558,53.264641 0 0 0 58.70062,-53.26641 58.701558,53.264641 0 0 0 -58.70062,-53.26379 z"
         style="opacity:1;fill:#1478a0;fill-opacity:1;stroke:none;stroke-opacity:1" />
      <path
         sodipodi:nodetypes="sssssssss"
         inkscape:connector-curvature="0"
         id="path4263"
         d="m 622.7263,345.43555 -50.7588,16.92828 c -1.14387,0.38148 -2.0369,2.66244 -0.97086,3.19834 l 19.34286,9.72399 c 0.80575,0.40506 1.31523,0.89418 1.7217,1.61118 l 10.11518,17.84275 c 0.55747,0.98335 3.09758,0.24376 3.55306,-0.78193 l 20.2121,-45.5138 c 0.57544,-1.29574 -1.77016,-3.49075 -3.21524,-3.00881 z"
         style="fill:#ffffff;fill-opacity:1;fill-rule:evenodd;stroke:none;stroke-width:1px;stroke-linecap:butt;stroke-linejoin:miter;stroke-opacity:1" />
    </g>
  </g>
</svg>
