<?xml version="1.0" encoding="UTF-8" standalone="no"?>
<!-- Created with Inkscape (http://www.inkscape.org/) -->

<svg
   xmlns:dc="http://purl.org/dc/elements/1.1/"
   xmlns:cc="http://creativecommons.org/ns#"
   xmlns:rdf="http://www.w3.org/1999/02/22-rdf-syntax-ns#"
   xmlns:svg="http://www.w3.org/2000/svg"
   xmlns="http://www.w3.org/2000/svg"
   xmlns:sodipodi="http://sodipodi.sourceforge.net/DTD/sodipodi-0.dtd"
   xmlns:inkscape="http://www.inkscape.org/namespaces/inkscape"
   width="210mm"
   height="297mm"
   viewBox="0 0 744.09448819 1052.3622047"
   id="svg2"
   version="1.1"
   inkscape:version="0.91 r13725"
   sodipodi:docname="user.svg">
  <defs
     id="defs4" />
  <sodipodi:namedview
     id="base"
     pagecolor="#ffffff"
     bordercolor="#666666"
     borderopacity="1.0"
     inkscape:pageopacity="0.0"
     inkscape:pageshadow="2"
     inkscape:zoom="1.979899"
     inkscape:cx="-14.665347"
     inkscape:cy="49.83087"
     inkscape:document-units="px"
     inkscape:current-layer="layer1"
     showgrid="false"
     inkscape:window-width="1366"
     inkscape:window-height="745"
     inkscape:window-x="-8"
     inkscape:window-y="-8"
     inkscape:window-maximized="1" />
  <metadata
     id="metadata7">
    <rdf:RDF>
      <cc:Work
         rdf:about="">
        <dc:format>image/svg+xml</dc:format>
        <dc:type
           rdf:resource="http://purl.org/dc/dcmitype/StillImage" />
        <dc:title />
      </cc:Work>
    </rdf:RDF>
  </metadata>
  <g
     inkscape:label="Capa 1"
     inkscape:groupmode="layer"
     id="layer1">
    <g
       id="g4191"
       transform="matrix(2.6146893,0,0,2.614786,568.23025,-452.64721)"
       inkscape:export-xdpi="90"
       inkscape:export-ydpi="90">
      <rect
         y="529.68365"
         x="-217.32143"
         height="45.892857"
         width="45.892857"
         id="rect4164"
         style="opacity:1;fill:#cccccc;fill-opacity:1;stroke:none;stroke-opacity:1" />
      <path
         id="rect4188"
         d="m -194.50781,534.02734 c -2.87936,0.0773 -5.61156,1.65215 -7.5293,3.7168 -1.58171,2.56046 -1.10994,5.70218 -1.55664,8.55274 -0.29695,3.18611 0.20062,6.4982 1.94922,9.22656 1.55526,1.95259 2.66514,4.91949 0.28906,6.74414 -2.16859,2.42771 -5.40027,3.31415 -8.16797,4.79687 -3.09831,2.06124 -5.47474,4.97793 -7.79883,7.83789 -0.002,0.40388 0.19937,0.58759 0.49024,0.67383 l 1.40039,0 c 0.40299,-0.0417 0.79414,-0.0727 1.08398,0 l 42.91993,0 0,-0.61523 c -0.18872,-1.94526 -2.33289,-3.15768 -3.51172,-4.57422 -3.03696,-2.88102 -6.86992,-4.63074 -10.60938,-6.38281 -2.2212,-0.85745 -4.5101,-3.17665 -3.23242,-5.6836 1.03323,-2.66832 3.36064,-4.9163 3.19531,-7.96875 0.14738,-3.8529 -0.17553,-7.76768 -1.16992,-11.49609 -0.79807,-2.38749 -2.945,-4.22426 -5.45898,-4.53516 -0.75198,-0.17095 -1.52051,-0.28715 -2.29297,-0.29297 z"
         style="opacity:1;fill:#808080;fill-opacity:1;stroke:none;stroke-opacity:1"
         inkscape:connector-curvature="0" />
    </g>
  </g>
</svg>
